<?xml version="1.0" encoding="UTF-8"?>
<!-- Generator: visioncortex VTracer 0.6.3 -->
<svg version="1.1" xmlns="http://www.w3.org/2000/svg" width="1280" height="1280">
<path d="M0 0 C422.4 0 844.8 0 1280 0 C1280 422.4 1280 844.8 1280 1280 C857.6 1280 435.2 1280 0 1280 C0 857.6 0 435.2 0 0 Z " fill="#000100" transform="translate(0,0)"/>
<path d="M0 0 C422.4 0 844.8 0 1280 0 C1280 422.4 1280 844.8 1280 1280 C857.6 1280 435.2 1280 0 1280 C0 857.6 0 435.2 0 0 Z M578.64 52.4 C573.55 53.24 568.44 53.82 563.31 54.44 C553.15 55.68 543.07 57.17 533 59 C532.16 59.15 531.32 59.3 530.45 59.46 C520 61.34 509.67 63.46 499.39 66.13 C496.6 66.85 493.82 67.48 491 68.06 C488.28 68.65 485.78 69.41 483.19 70.44 C480.06 71.67 476.96 72.54 473.69 73.31 C468.03 74.68 462.49 76.32 456.94 78.06 C456.1 78.32 455.27 78.58 454.41 78.84 C453.23 79.22 453.23 79.22 452.03 79.6 C451.32 79.82 450.62 80.04 449.89 80.27 C447.72 81.03 447.72 81.03 445 83 C443.06 83.46 441.11 83.92 439.17 84.37 C436.95 85.02 435.15 85.89 433.12 87 C429.25 89.08 425.53 89.8 421.2 90.41 C418.62 91.1 417.83 92.11 416 94 C413.91 94.84 413.91 94.84 411.62 95.5 C408.02 96.62 405.23 98.03 402 100 C400.34 100.69 398.67 101.35 397 102 C393.41 103.39 390.28 104.99 387 107 C385.45 107.5 385.45 107.5 383.88 108 C381.02 108.75 381.02 108.75 379.56 110.5 C377.16 112.81 374.18 113.1 371 114 C368.6 115.23 366.32 116.62 364 118 C363.11 118.35 362.23 118.7 361.31 119.06 C358.83 120.07 357.13 121.39 355 123 C353.01 124.02 351.01 125.01 349 126 C336.2 132.36 336.2 132.36 325 141 C324.13 141.33 323.27 141.66 322.38 142 C321.2 142.5 321.2 142.5 320 143 C319.67 143.99 319.34 144.98 319 146 C317.91 146.31 316.81 146.62 315.69 146.94 C311.75 148.07 310.67 149.06 308 152 C306.35 153.02 304.68 154.03 303 155 C302.34 155.66 301.68 156.32 301 157 C299.86 157.4 299.86 157.4 298.69 157.81 C295.99 159.01 294.63 160.32 292.64 162.45 C287.6 167.23 281.56 171.12 275.62 174.69 C272.24 176.75 269.75 179.12 267 182 C262.05 186.63 256.97 191.06 251.69 195.31 C245.76 200.11 240.21 205.26 234.64 210.47 C233.06 211.94 231.46 213.39 229.85 214.84 C216.99 226.4 205.31 239.11 194.31 252.43 C192.47 254.64 190.6 256.83 188.73 259.02 C184.37 264.14 180.09 269.32 175.91 274.59 C174.57 276.28 173.23 277.96 171.87 279.63 C167.61 284.86 167.61 284.86 163.75 290.38 C162 293 162 293 159.88 295.06 C157.74 297.27 157.11 299.16 156 302 C154.32 304.26 152.56 306.39 150.66 308.47 C147.85 311.63 147.85 311.63 146.5 315.56 C145.78 319.09 143.56 320.56 141 323 C140.32 324.33 139.65 325.66 139 327 C138.01 327.66 137.02 328.32 136 329 C135.14 330.75 135.14 330.75 134.56 332.75 C133.21 336.64 131.31 339.57 129 343 C127.48 346.01 126.01 349.05 124.56 352.1 C122.98 355.04 121.1 357.41 119 360 C118.67 361.01 118.34 362.02 118 363.06 C117 366 117 366 115 367.88 C112.84 370.17 112.58 371.14 111.94 374.12 C111 378 111 378 108 380 C107.35 382.23 107.06 384.42 106.72 386.71 C106 389 106 389 104.03 390.96 C101.63 393.38 101.22 394.96 100.5 398.25 C99.43 402.66 98 406.31 95.84 410.28 C94.78 412.45 94.43 414.63 94 417 C93.34 417.33 92.68 417.66 92 418 C91.3 419.83 90.69 421.69 90.12 423.56 C88.93 427.34 87.7 430.83 85.81 434.31 C84.39 436.97 83.94 438.39 83.5 441.5 C83.05 444.64 82.58 446.07 81.12 448.75 C78.96 452.79 77.84 456.84 76.72 461.26 C75.86 464.54 74.79 467.73 73.69 470.93 C72.46 474.62 71.39 478.34 70.5 482.12 C70 484 70 484 69.09 485.99 C67.24 491.09 66.48 496.45 65.5 501.78 C65.34 502.65 65.17 503.52 65 504.41 C64.86 505.2 64.71 505.98 64.56 506.79 C63.98 509.08 63.05 510.89 62 513 C61.51 514.97 61.51 514.97 61.25 517.02 C61.08 518.17 61.08 518.17 60.91 519.34 C60.8 520.16 60.68 520.97 60.56 521.81 C59.71 527.59 58.77 533.29 57.5 539 C55.75 547.38 54.94 555.86 54.09 564.37 C53.58 569.38 53.03 574.24 51.85 579.13 C50.68 582.89 50.68 582.89 52 586 C51.67 586.66 51.34 587.32 51 588 C50.75 590.42 50.57 592.81 50.45 595.24 C50.38 596.41 50.38 596.41 50.32 597.61 C49.77 609.1 49.85 620.6 49.87 632.1 C49.88 636.1 49.87 640.09 49.86 644.09 C49.86 665.22 50 686.28 52.88 707.25 C53.06 708.63 53.24 710.01 53.42 711.38 C53.93 715.26 54.47 719.13 55 723 C55.24 724.82 55.48 726.64 55.72 728.46 C57.71 743.12 60.9 757.55 64 772 C64.39 773.85 64.78 775.69 65.17 777.54 C66.58 784.11 67.99 790.6 70.29 796.93 C71.15 799.44 71.82 801.99 72.5 804.56 C73.54 808.46 74.78 812.16 76.25 815.91 C77.13 818.37 77.78 820.85 78.44 823.38 C79.59 827.7 81.03 831.72 82.76 835.85 C83.81 838.53 84.78 841.21 85.71 843.93 C86.01 844.83 86.32 845.72 86.63 846.64 C87.24 848.44 87.85 850.24 88.45 852.04 C88.74 852.88 89.02 853.72 89.32 854.59 C89.57 855.34 89.82 856.09 90.08 856.87 C90.94 859.08 90.94 859.08 92.55 861.05 C94.33 863.45 94.7 865.78 95.34 868.65 C96.41 872.44 98.15 875.9 99.84 879.45 C101 882 101 882 102.12 885.5 C102.79 888.01 102.79 888.01 104.45 889.36 C106.34 891.36 106.89 893.07 107.69 895.69 C108.06 896.9 108.06 896.9 108.45 898.14 C108.72 899.06 108.72 899.06 109 900 C109.66 900 110.32 900 111 900 C111.1 900.69 111.2 901.37 111.3 902.08 C111.45 902.98 111.6 903.88 111.75 904.81 C111.89 905.71 112.03 906.6 112.17 907.52 C113.18 910.55 114.46 911.18 117 913 C117.69 914.9 117.69 914.9 118 916.94 C118.79 920.8 120.06 922.32 123 925 C124.05 926.97 125.05 928.98 126 931 C126.82 932.55 127.66 934.09 128.5 935.62 C129.1 936.73 129.1 936.73 129.72 937.85 C130.98 940.05 130.98 940.05 132.6 942.13 C134 944 134 944 134.88 946.31 C136.16 949.38 137.87 951.72 139.88 954.35 C141 956 141 956 142 959 C142.65 959.65 142.65 959.65 143.31 960.31 C145.12 962.12 146.45 964.06 147.83 966.2 C149.19 968.3 150.6 970.37 152 972.44 C153.83 975.18 155.55 977.92 157.12 980.81 C158.79 983.95 158.79 983.95 160.88 985.88 C163.15 988.15 164.9 990.51 166.75 993.12 C170.66 998.57 174.76 1003.81 179 1009 C179.7 1009.86 180.4 1010.72 181.12 1011.61 C183.4 1014.42 185.7 1017.21 188 1020 C188.44 1020.53 188.87 1021.06 189.33 1021.61 C194.63 1028.02 200.01 1034.17 205.98 1039.98 C207.8 1041.8 209.47 1043.66 211.12 1045.62 C218.66 1054.4 227.09 1062.75 235.93 1070.21 C238.21 1072.18 240.41 1074.23 242.62 1076.29 C248.88 1082.14 255.32 1087.65 262 1093 C263.88 1094.54 265.75 1096.08 267.62 1097.62 C275.88 1104.37 284.35 1110.76 293 1117 C294.94 1118.42 296.88 1119.83 298.81 1121.25 C302.49 1123.93 306.2 1126.5 310 1129 C310.72 1129.58 311.44 1130.15 312.19 1130.75 C314.04 1132.28 314.04 1132.28 317 1132 C317 1132.66 317 1133.32 317 1134 C317.59 1134.31 318.18 1134.63 318.79 1134.95 C323.21 1137.35 327.09 1139.83 331 1143 C332.98 1144.04 334.98 1145.03 337 1146 C340.02 1147.63 343.01 1149.32 346 1151 C346.93 1151.51 346.93 1151.51 347.89 1152.04 C350.94 1153.73 353.78 1155.54 356.56 1157.62 C359.57 1159.84 362.44 1160.84 366 1162 C366.82 1162.7 367.65 1163.4 368.5 1164.12 C371.56 1166.42 373.27 1166.35 377 1166 C377.21 1166.62 377.41 1167.24 377.62 1167.88 C379.58 1170.9 381.57 1171.18 385 1172 C386.32 1172 387.64 1172 389 1172 C389.33 1172.99 389.66 1173.98 390 1175 C392.94 1176.96 394.81 1177.56 398.19 1178.38 C402.58 1179.51 406.31 1181.01 410.29 1183.16 C412.46 1184.23 414.64 1184.54 417 1185 C417.91 1185.71 417.91 1185.71 418.85 1186.44 C421.16 1188.11 422.94 1188.73 425.69 1189.44 C430.03 1190.65 433.96 1192.26 438.04 1194.16 C440.32 1195.14 442.57 1195.53 445 1196 C445.76 1196.48 446.52 1196.95 447.31 1197.44 C450.05 1199.03 452.23 1199.7 455.31 1200.38 C460.36 1201.55 465.26 1202.98 470.19 1204.56 C474.53 1205.96 478.84 1207.27 483.31 1208.19 C487 1209 487 1209 490 1211 C492.13 1211.6 492.13 1211.6 494.49 1212 C495.36 1212.16 496.23 1212.33 497.13 1212.5 C498.04 1212.66 498.94 1212.83 499.88 1213 C505.16 1213.97 510.02 1214.95 515 1217 C517.66 1217.38 517.66 1217.38 520.38 1217.5 C524.84 1217.83 528.7 1218.75 533 1220 C535.49 1220.29 537.97 1220.49 540.47 1220.66 C543 1221 543 1221 545.76 1221.96 C549.77 1223.25 553.64 1223.66 557.81 1224.06 C559.34 1224.22 560.87 1224.38 562.39 1224.54 C563.16 1224.61 563.92 1224.69 564.71 1224.77 C566.96 1225 569.21 1225.24 571.46 1225.5 C576.26 1226.03 581.07 1226.53 585.88 1227 C586.68 1227.08 587.48 1227.16 588.3 1227.25 C605.05 1228.88 621.81 1229.18 638.62 1229.12 C639.64 1229.12 640.66 1229.12 641.7 1229.12 C647.65 1229.1 653.59 1229.07 659.53 1229.02 C661.63 1229 663.73 1228.99 665.82 1228.98 C680.86 1228.84 695.75 1227.19 710.69 1225.56 C711.7 1225.45 712.71 1225.34 713.75 1225.23 C716.65 1224.91 719.55 1224.59 722.45 1224.25 C723.32 1224.16 724.2 1224.06 725.1 1223.96 C729.65 1223.43 733.67 1222.57 738 1221 C740.33 1220.65 742.66 1220.31 745 1220 C745.66 1219.67 746.32 1219.34 747 1219 C748.67 1219 750.33 1219 752 1219 C752.99 1218.67 753.98 1218.34 755 1218 C756.39 1217.71 757.79 1217.45 759.19 1217.19 C764.54 1216.15 769.81 1214.82 775.09 1213.47 C779.7 1212.3 784.3 1211.29 788.98 1210.49 C791.04 1210.07 791.04 1210.07 792.93 1209 C795.4 1207.81 797.61 1207.46 800.31 1207.06 C805 1206.28 808.72 1205.01 813 1203 C814.32 1202.63 815.66 1202.31 817 1202 C818.98 1201.55 820.96 1201.09 822.94 1200.62 C824.47 1200.27 824.47 1200.27 826.03 1199.91 C829.07 1198.98 831.3 1197.66 834 1196 C835.69 1195.42 837.4 1194.9 839.12 1194.44 C842.33 1193.57 844.18 1192.88 847 1191 C848.74 1190.5 850.49 1190.04 852.25 1189.62 C855.76 1188.72 858.73 1187.78 861.81 1185.88 C865 1184 865 1184 867.88 1183.56 C871.74 1182.87 874.4 1181.18 877.75 1179.2 C879.82 1178.1 881.61 1177.43 883.88 1176.88 C886.95 1176.3 886.95 1176.3 888.41 1174.54 C890.84 1172.19 893.65 1171.74 896.84 1170.84 C899.07 1170.14 899.07 1170.14 900.57 1168.43 C902 1167 902 1167 905.38 1166.62 C909.86 1165.85 910.92 1164.24 914 1161 C915.66 1160.23 917.33 1159.47 919.04 1158.81 C923.84 1156.82 928.33 1154.03 932.75 1151.31 C935 1150 935 1150 937.56 1149.06 C940.12 1148.13 940.12 1148.13 941.94 1146 C944.45 1143.57 946.71 1143.1 950 1142 C951.35 1140.69 952.69 1139.35 954 1138 C955.33 1137.47 955.33 1137.47 956.69 1136.94 C957.45 1136.63 958.21 1136.32 959 1136 C959.33 1135.01 959.66 1134.02 960 1133 C961.13 1132.69 962.27 1132.38 963.44 1132.06 C964.61 1131.71 965.79 1131.36 967 1131 C967.33 1130.34 967.66 1129.68 968 1129 C968.33 1128.34 968.66 1127.68 969 1127 C971.33 1126.31 973.66 1125.65 976 1125 C978.15 1123.1 978.15 1123.1 980 1121 C981.67 1120 983.33 1119 985 1118 C986.56 1116.8 988.1 1115.57 989.62 1114.31 C993.17 1111.43 996.77 1108.7 1000.5 1106.06 C1005.11 1102.74 1009.29 1099.14 1013.47 1095.29 C1016.08 1092.93 1018.76 1090.71 1021.5 1088.5 C1025.93 1084.91 1030.21 1081.19 1034.42 1077.34 C1036.49 1075.46 1038.59 1073.63 1040.7 1071.8 C1044.73 1068.28 1048.54 1064.6 1052.32 1060.82 C1052.98 1060.16 1053.64 1059.5 1054.32 1058.82 C1055.7 1057.44 1057.08 1056.05 1058.46 1054.67 C1060.56 1052.57 1062.66 1050.47 1064.76 1048.38 C1066.11 1047.03 1067.46 1045.67 1068.82 1044.32 C1069.43 1043.7 1070.05 1043.09 1070.69 1042.45 C1076.38 1036.73 1081.72 1030.74 1086.69 1024.38 C1090.02 1020.17 1093.48 1016.11 1097 1012.06 C1101.37 1007.02 1105.44 1001.87 1109.28 996.4 C1111 994 1111 994 1113.22 991.38 C1115.3 989.1 1115.3 989.1 1115 986 C1115.62 985.71 1116.24 985.42 1116.88 985.12 C1119.67 983.65 1120.8 982.53 1121.94 979.56 C1123.02 976.95 1124.05 975.95 1126 974 C1126.46 972.76 1126.46 972.76 1126.94 971.5 C1128 969 1128 969 1129.94 967.56 C1132.68 965.48 1133.56 963.08 1135 960 C1135.66 959.34 1136.32 958.68 1137 958 C1137.4 956.61 1137.4 956.61 1137.81 955.19 C1139 952 1139 952 1141.62 949.44 C1144.27 947.23 1144.27 947.23 1144.31 944.19 C1144.21 943.47 1144.11 942.74 1144 942 C1144.62 941.74 1145.24 941.49 1145.88 941.22 C1148.31 939.82 1148.83 938.97 1149.94 936.44 C1151.39 933.3 1152.9 930.23 1154.56 927.19 C1154.96 926.46 1155.35 925.73 1155.75 924.98 C1157 923 1157 923 1158.59 921.5 C1160.74 919.21 1160.85 916.75 1161.38 913.74 C1161.58 913.17 1161.79 912.59 1162 912 C1162.99 911.67 1163.98 911.34 1165 911 C1165.92 908.73 1165.92 908.73 1166.5 906.06 C1167.67 901.22 1167.67 901.22 1171 899 C1171.91 896.76 1171.91 896.76 1172.5 894.19 C1173.49 890.28 1174.91 887.43 1177 884 C1178.24 881.43 1179.37 878.81 1180.5 876.19 C1180.8 875.51 1181.09 874.84 1181.39 874.15 C1183.95 868.26 1186.17 862.27 1188.38 856.25 C1190.06 851.71 1191.99 847.28 1193.91 842.83 C1194.92 840.2 1195.46 837.76 1196 835 C1196.6 833.57 1197.25 832.15 1197.94 830.75 C1199.69 826.95 1200.64 823.38 1201.45 819.29 C1202.03 816.86 1202.89 814.73 1203.88 812.44 C1206.52 806.12 1207.98 799.53 1209.55 792.89 C1210.15 790.35 1210.8 787.83 1211.44 785.31 C1211.67 784.35 1211.91 783.39 1212.16 782.4 C1212.61 780.55 1213.08 778.7 1213.55 776.86 C1216.61 764.97 1218.92 753.12 1220.66 740.97 C1220.8 739.93 1220.95 738.9 1221.11 737.83 C1221.23 736.92 1221.36 736.01 1221.49 735.08 C1221.9 732.57 1222.42 730.15 1222.99 727.68 C1223.99 723.25 1224.58 718.85 1225.04 714.34 C1225.12 713.54 1225.2 712.75 1225.29 711.93 C1225.46 710.25 1225.64 708.58 1225.8 706.91 C1226.06 704.4 1226.32 701.89 1226.59 699.39 C1227.09 694.59 1227.55 689.8 1228 685 C1228.17 683.24 1228.17 683.24 1228.34 681.45 C1229.32 669.41 1229.15 657.32 1229.13 645.24 C1229.13 641.4 1229.13 637.57 1229.14 633.73 C1229.26 606.72 1229.26 606.72 1226.56 579.88 C1226.29 578.04 1226.02 576.2 1225.75 574.36 C1225.62 573.47 1225.49 572.58 1225.36 571.65 C1224.79 567.47 1224.4 563.27 1224 559.06 C1222.98 545.64 1222.98 545.64 1219 533 C1218.56 529.68 1218.18 526.36 1217.84 523.03 C1217.38 519.01 1216.59 515.7 1215 512 C1214.6 510.18 1214.25 508.34 1213.94 506.5 C1212.75 499.24 1212.75 499.24 1210.69 492.19 C1209.22 487.91 1208.12 483.58 1207.06 479.19 C1205.62 473.25 1203.93 467.48 1201.92 461.7 C1201.1 459.29 1200.38 456.88 1199.69 454.44 C1197.95 448.53 1195.76 442.8 1193.6 437.04 C1191.85 432.35 1190.19 427.65 1188.67 422.88 C1187.77 420.37 1186.38 418.27 1185 416 C1183.2 411.81 1181.59 407.54 1179.95 403.28 C1177.16 396.3 1173.84 389.72 1170.21 383.14 C1167.69 378.53 1165.8 373.93 1164 369 C1163.03 367.65 1162.03 366.31 1161 365 C1160.07 363.14 1159.14 361.28 1158.23 359.41 C1155.71 354.48 1152.81 349.76 1150 345 C1147.9 341.38 1145.87 337.75 1144 334 C1141.64 328.84 1141.64 328.84 1137 326 C1136.33 324 1135.67 322 1135 320 C1131.82 313.08 1131.82 313.08 1126 309 C1125.62 307.68 1125.3 306.34 1125 305 C1121.99 299.45 1118.5 294.36 1114.19 289.75 C1110.05 285.31 1106.82 280.43 1103.59 275.32 C1101.07 271.39 1098.38 268.25 1095 265 C1093.6 263.33 1092.23 261.64 1090.88 259.94 C1086.7 254.77 1082.3 249.88 1077.77 245.02 C1075.68 242.76 1073.64 240.45 1071.62 238.13 C1060.26 225.09 1048.39 212.15 1034.86 201.36 C1031.76 198.8 1028.81 196.12 1025.88 193.38 C1021.77 189.55 1017.55 185.98 1013.07 182.6 C1011.02 181.02 1009.11 179.35 1007.19 177.62 C1002.06 173.07 996.51 169.08 991 165 C989.73 164.02 988.46 163.04 987.19 162.06 C982.8 158.77 978.22 155.78 973.65 152.76 C969.89 150.27 966.17 147.74 962.5 145.12 C959.75 143.18 957.01 141.38 954.06 139.75 C951 138 951 138 949.5 136.44 C947.1 134.14 944.04 133.27 941 132 C940.34 131.34 939.68 130.68 939 130 C938.28 129.71 937.56 129.42 936.81 129.12 C931.99 127.2 927.75 124.61 923.62 121.5 C920.25 119.01 916.71 117.44 912.82 115.89 C911 115 911 115 910 113 C908.95 112.9 907.9 112.79 906.81 112.69 C902.85 111.97 901.54 110.95 898.67 108.27 C896.11 106.33 893.31 105.62 890.25 104.77 C887.57 103.85 885.42 102.47 883 101 C876.12 97.81 869.16 94.92 861.93 92.64 C859.58 91.86 857.33 90.88 855.07 89.88 C847.95 86.85 840.67 84.12 833.29 81.77 C831.26 81.09 829.26 80.34 827.25 79.57 C823.14 78.02 818.98 76.72 814.75 75.5 C814.02 75.28 813.28 75.07 812.52 74.85 C807.19 73.3 801.83 71.92 796.42 70.68 C794 70 794 70 792.13 69 C789.09 67.57 786.06 67.19 782.75 66.62 C777.15 65.64 771.68 64.46 766.19 63 C759.37 61.2 752.53 60.02 745.56 59.04 C744.8 58.93 744.05 58.82 743.28 58.71 C742.62 58.62 741.96 58.53 741.28 58.44 C739 58 739 58 735.77 57.02 C731.62 55.9 727.64 55.38 723.36 54.96 C722.56 54.88 721.76 54.8 720.93 54.71 C718.39 54.45 715.85 54.19 713.31 53.94 C710.76 53.68 708.21 53.42 705.66 53.15 C704.08 52.99 702.5 52.83 700.91 52.67 C695.43 52.11 695.43 52.11 693.01 51.49 C689.45 50.62 685.77 50.61 682.12 50.45 C680.75 50.38 680.75 50.38 679.35 50.32 C667.57 49.83 655.78 49.85 643.99 49.87 C640.07 49.87 636.15 49.87 632.24 49.86 C605.34 49.58 605.34 49.58 578.64 52.4 Z " fill="#F3F5F7" transform="translate(0,0)"/>
<path d="M0 0 C0.84 0.02 1.68 0.04 2.55 0.06 C4.32 0.11 6.09 0.16 7.86 0.21 C10.53 0.29 13.19 0.36 15.85 0.42 C42.07 1.11 42.07 1.11 53.68 3.41 C58.19 4.27 62.66 5.07 67.24 5.48 C70.86 5.91 70.86 5.91 73.86 7.91 C75.78 8.11 77.7 8.31 79.62 8.5 C82.88 9.1 85.61 10.52 88.57 11.95 C90.88 12.92 92.97 13.41 95.43 13.85 C99.51 14.65 102.22 16.23 105.63 18.56 C108.3 20.18 111.02 21.23 113.93 22.35 C118.45 24.16 121.8 26.06 125.27 29.48 C127.29 31.3 129.53 32.52 131.86 33.91 C138.57 39 145.44 44.44 150.86 50.91 C150.86 51.57 150.86 52.23 150.86 52.91 C151.41 53.1 151.97 53.29 152.54 53.48 C155.97 55.6 157.83 58.58 160.11 61.85 C160.57 62.49 161.03 63.12 161.5 63.77 C164.86 68.53 164.86 68.53 164.86 71.91 C165.85 72.24 166.84 72.57 167.86 72.91 C169.22 74.93 169.22 74.93 170.61 77.6 C171.13 78.59 171.65 79.58 172.18 80.6 C172.74 81.69 173.29 82.79 173.86 83.91 C174.48 85.1 175.09 86.29 175.7 87.48 C178.79 93.5 181.67 99.5 183.86 105.91 C184.17 106.72 184.47 107.52 184.79 108.35 C192.39 128.51 198.42 151.06 199.65 172.66 C199.73 174.95 199.73 174.95 200.86 176.91 C205.74 209.18 204.28 242.42 204.21 274.95 C204.19 283.15 204.19 291.35 204.19 299.54 C204.18 314.19 204.17 328.84 204.14 343.49 C204.12 357.61 204.11 371.74 204.1 385.86 C204.1 386.73 204.1 387.6 204.1 388.49 C204.1 390.25 204.1 392 204.1 393.76 C204.1 395.06 204.1 395.06 204.1 396.38 C204.1 397.25 204.1 398.11 204.1 399 C204.1 412.6 204.09 426.2 204.07 439.79 C204.07 444.67 204.06 449.54 204.06 454.42 C204.06 462.15 204.05 469.89 204.04 477.63 C204.03 481.15 204.02 484.67 204.02 488.19 C204.02 489.48 204.02 490.78 204.02 492.12 C204.02 493.23 204.02 494.35 204.02 495.5 C203.95 513.01 203.39 530.38 202.86 547.91 C148.74 547.91 94.62 547.91 38.86 547.91 C37.69 545.57 37.73 544.2 37.73 541.6 C37.72 540.69 37.72 539.77 37.71 538.83 C37.71 537.83 37.71 536.82 37.71 535.78 C37.71 534.18 37.71 534.18 37.7 532.55 C37.69 528.95 37.68 525.36 37.67 521.76 C37.67 519.19 37.66 516.62 37.65 514.05 C37.63 508.51 37.62 502.97 37.6 497.43 C37.58 489.41 37.56 481.4 37.53 473.38 C37.49 460.37 37.45 447.37 37.42 434.36 C37.41 433.58 37.41 432.8 37.41 432 C37.39 425.68 37.37 419.36 37.36 413.04 C37.34 407.52 37.33 401.99 37.31 396.47 C37.31 395.69 37.31 394.91 37.3 394.11 C37.27 381.15 37.23 368.2 37.19 355.24 C37.16 347.24 37.14 339.24 37.12 331.24 C37.1 325.12 37.09 319 37.06 312.87 C37.06 310.36 37.05 307.84 37.05 305.32 C37.04 301.9 37.03 298.47 37.01 295.05 C37.01 294.04 37.01 293.03 37.01 291.99 C37.01 291.08 37 290.17 37 289.23 C37 288.04 37 288.04 36.99 286.83 C36.98 284.83 36.98 284.83 35.86 282.91 C35.8 280.52 35.8 278.16 35.84 275.77 C35.85 274.29 35.86 272.82 35.87 271.34 C35.9 269.02 35.93 266.7 35.96 264.39 C36.08 255.34 35.82 246.76 34.3 237.82 C33.91 235.2 33.78 232.8 33.86 230.16 C34.03 224.24 32.73 218.51 30.86 212.91 C29.16 205.75 29.16 205.75 28.5 202.81 C27.55 198.82 26.5 196.04 23.86 192.91 C23.47 191.78 23.08 190.65 22.68 189.48 C16.98 173.72 5.47 161.88 -9.45 154.79 C-29.86 146.14 -52.62 146.34 -74.14 149.91 C-75.86 150.13 -75.86 150.13 -77.62 150.35 C-79.24 150.57 -79.24 150.57 -80.89 150.79 C-81.83 150.91 -82.77 151.03 -83.75 151.16 C-86.29 151.69 -86.29 151.69 -87.53 153.92 C-89.92 156.88 -92.44 156.45 -96.14 156.91 C-105.35 161.25 -112.26 167.49 -119.14 174.91 C-120.4 176.12 -120.4 176.12 -121.69 177.35 C-127.69 183.64 -131.37 191.76 -134.14 199.91 C-134.67 201.05 -135.21 202.18 -135.76 203.35 C-137.19 207.06 -137.57 210.07 -137.73 214 C-138.14 215.91 -138.14 215.91 -141.14 217.91 C-141.91 220.74 -141.91 220.74 -142.27 224.09 C-142.44 225.33 -142.6 226.57 -142.77 227.85 C-142.93 229.15 -143.1 230.45 -143.26 231.79 C-143.6 234.35 -143.93 236.91 -144.27 239.47 C-144.41 240.61 -144.56 241.75 -144.7 242.92 C-145.14 245.91 -145.14 245.91 -145.63 247.76 C-148.75 261.01 -147.31 276.04 -147.34 289.55 C-147.35 293.02 -147.36 296.5 -147.37 299.97 C-147.39 305.98 -147.41 311.98 -147.43 317.99 C-147.45 326.67 -147.48 335.35 -147.51 344.04 C-147.56 358.13 -147.6 372.22 -147.64 386.31 C-147.68 399.99 -147.72 413.67 -147.76 427.35 C-147.77 428.2 -147.77 429.05 -147.77 429.93 C-147.79 436.6 -147.82 443.28 -147.84 449.95 C-147.94 482.61 -148.04 515.26 -148.14 547.91 C-201.93 548.24 -255.72 548.57 -311.14 548.91 C-311.14 548.25 -311.14 547.59 -311.14 546.91 C-311.8 546.91 -312.46 546.91 -313.14 546.91 C-313.14 371.02 -313.14 195.13 -313.14 13.91 C-310.35 12.52 -308.1 12.81 -304.98 12.83 C-303.67 12.83 -302.35 12.84 -301 12.84 C-299.53 12.85 -298.07 12.86 -296.61 12.88 C-295.07 12.88 -293.53 12.89 -292 12.9 C-287.82 12.92 -283.64 12.95 -279.47 12.98 C-275.1 13.01 -270.74 13.04 -266.37 13.06 C-259.05 13.11 -251.72 13.16 -244.39 13.21 C-235.91 13.27 -227.42 13.32 -218.94 13.37 C-211.66 13.41 -204.39 13.46 -197.12 13.51 C-192.77 13.54 -188.42 13.57 -184.07 13.59 C-179.99 13.62 -175.9 13.64 -171.81 13.68 C-170.31 13.69 -168.8 13.7 -167.3 13.7 C-165.25 13.71 -163.21 13.73 -161.17 13.75 C-160.02 13.76 -158.87 13.76 -157.69 13.77 C-155.14 13.91 -155.14 13.91 -154.14 14.91 C-154.02 17.02 -153.98 19.13 -153.96 21.24 C-153.96 21.9 -153.95 22.56 -153.94 23.24 C-153.93 24.68 -153.92 26.11 -153.91 27.55 C-153.89 29.83 -153.87 32.1 -153.84 34.37 C-153.77 40.84 -153.71 47.3 -153.66 53.77 C-153.63 57.72 -153.59 61.67 -153.54 65.61 C-153.52 67.12 -153.51 68.63 -153.5 70.14 C-153.49 72.25 -153.47 74.35 -153.44 76.46 C-153.42 78.26 -153.42 78.26 -153.41 80.1 C-153.42 83.05 -153.42 83.05 -151.14 84.91 C-150.15 84.58 -149.16 84.25 -148.14 83.91 C-148.05 82.7 -147.97 81.48 -147.89 80.23 C-147.6 76.04 -145.84 74.04 -143.14 70.91 C-142.26 69.78 -142.26 69.78 -141.38 68.62 C-129.45 53.43 -114.94 38.62 -98.14 28.91 C-97.23 28.36 -96.32 27.8 -95.39 27.23 C-93.14 25.91 -93.14 25.91 -91.01 24.91 C-89.08 24.02 -89.08 24.02 -87.82 22.41 C-85.31 20.18 -82.34 19.83 -79.14 18.91 C-78.66 18.43 -78.19 17.95 -77.7 17.45 C-75.8 15.58 -74.24 15.1 -71.7 14.35 C-68.66 13.44 -65.96 12.37 -63.14 10.91 C-58.95 9.35 -54.76 8.35 -50.38 7.48 C-48.08 6.96 -48.08 6.96 -45.82 5.92 C-42.49 4.67 -39.35 4.28 -35.82 3.85 C-35.16 3.77 -34.5 3.69 -33.82 3.6 C-31.03 3.25 -28.24 2.93 -25.45 2.6 C-21.67 2.2 -21.67 2.2 -18.14 0.91 C-12.1 -0.13 -6.1 -0.19 0 0 Z " fill="#F3F5F7" transform="translate(836.13671875,491.0859375)"/>
<path d="M0 0 C0.67 -0 1.34 -0 2.03 -0 C4.29 -0.01 6.54 -0.01 8.8 -0 C10.41 -0 12.02 -0.01 13.64 -0.01 C18.02 -0.01 22.41 -0.01 26.8 -0.01 C31.39 -0 35.97 -0.01 40.55 -0.01 C48.26 -0.01 55.96 -0.01 63.66 -0 C72.57 0 81.48 0 90.39 -0.01 C98.04 -0.01 105.68 -0.01 113.32 -0.01 C117.89 -0.01 122.46 -0.01 127.02 -0.01 C131.32 -0.01 135.61 -0.01 139.91 -0 C141.49 -0 143.07 -0 144.65 -0.01 C146.8 -0.01 148.94 -0.01 151.09 0 C152.3 0 153.5 0 154.75 0 C157.55 0.13 157.55 0.13 159.55 1.13 C159.55 177.02 159.55 352.91 159.55 534.13 C104.77 534.13 49.99 534.13 -6.45 534.13 C-8.1 530.84 -7.6 527.2 -7.59 523.59 C-7.6 522.24 -7.6 522.24 -7.6 520.86 C-7.61 517.82 -7.61 514.77 -7.61 511.73 C-7.62 509.54 -7.62 507.34 -7.63 505.15 C-7.64 499.1 -7.65 493.05 -7.65 487 C-7.66 480.49 -7.68 473.97 -7.69 467.46 C-7.71 456.17 -7.73 444.87 -7.74 433.58 C-7.76 421.73 -7.78 409.88 -7.8 398.03 C-7.8 397.29 -7.8 396.56 -7.8 395.8 C-7.81 392.06 -7.82 388.32 -7.82 384.59 C-7.87 358.09 -7.92 331.6 -7.96 305.11 C-8 279.37 -8.04 253.63 -8.08 227.88 C-8.08 227.09 -8.08 226.3 -8.08 225.48 C-8.1 217.52 -8.11 209.55 -8.13 201.59 C-8.15 185.36 -8.18 169.14 -8.21 152.91 C-8.21 152.17 -8.21 151.42 -8.21 150.65 C-8.3 100.81 -8.38 50.97 -8.45 1.13 C-5.6 -0.3 -3.19 0 0 0 Z " fill="#FDFDFD" transform="translate(259.453125,504.8730163574219)"/>
<path d="M0 0 C0.84 -0 1.68 -0.01 2.55 -0.01 C4.33 -0.01 6.11 -0.01 7.88 0.01 C10.59 0.02 13.29 0.01 15.99 -0.01 C17.72 -0.01 19.45 -0.01 21.19 0 C21.99 -0.01 22.79 -0.01 23.61 -0.02 C29.16 0.05 33.24 1.25 38.36 3.4 C40.78 3.94 40.78 3.94 42.86 4.09 C44.59 4.24 44.59 4.24 46.36 4.4 C46.69 5.72 47.02 7.04 47.36 8.4 C48.01 8.48 48.66 8.57 49.34 8.66 C55.61 9.67 58.78 11.03 63.36 15.4 C64.53 16.1 64.53 16.1 65.73 16.81 C75.11 22.48 86.48 33.09 90.36 43.4 C91.16 44.16 91.97 44.92 92.8 45.71 C95.54 48.59 96.45 50.66 97.68 54.35 C98.32 56.28 99.12 58.16 99.92 60.02 C104.16 69.98 106.81 80.58 107.36 91.4 C107.4 92.19 107.44 92.98 107.48 93.8 C107.64 99.99 107.12 106.12 106.55 112.27 C106.44 113.51 106.44 113.51 106.33 114.76 C105.85 119.43 105.06 122.45 102.36 126.4 C101.67 128.15 101.02 129.92 100.42 131.71 C98.15 138.15 95.62 144.03 91.36 149.4 C90.88 150.2 90.41 151.01 89.92 151.84 C88.25 154.58 86.42 156.93 84.36 159.4 C83.87 160 83.37 160.59 82.86 161.21 C77.18 167.93 71.04 174.02 63.36 178.4 C62.63 178.82 61.9 179.24 61.15 179.68 C60.08 180.28 60.08 180.28 58.98 180.9 C57.92 181.5 57.92 181.5 56.84 182.12 C51.39 184.93 45.72 187.06 39.92 189.02 C38.07 189.66 38.07 189.66 36.18 190.31 C20.1 194.89 -0.73 194.37 -16.64 189.4 C-17.71 189.09 -18.79 188.77 -19.89 188.45 C-25.58 186.69 -30.54 184.48 -35.64 181.4 C-36.49 180.89 -36.49 180.89 -37.36 180.36 C-45.08 175.65 -52.14 170.72 -58.64 164.4 C-59.55 163.53 -60.46 162.67 -61.39 161.77 C-65.76 157.16 -69.03 153.11 -71.65 147.33 C-72.6 145.33 -72.6 145.33 -74.1 143.55 C-76.02 140.87 -77.01 138.18 -78.14 135.09 C-79.41 131.66 -80.67 128.33 -82.22 125.02 C-83.84 120.89 -84.42 117.21 -84.83 112.84 C-84.91 112.05 -84.99 111.26 -85.07 110.45 C-85.73 103.42 -85.89 96.46 -85.64 89.4 C-85.61 88.19 -85.58 86.98 -85.55 85.74 C-85.27 79.24 -84.56 74.21 -81.55 68.43 C-80.56 66.21 -80.32 64.43 -80.14 62.02 C-79.64 58.4 -79.64 58.4 -77.64 56.84 C-76.98 56.36 -76.32 55.89 -75.64 55.4 C-75.5 54.28 -75.35 53.17 -75.2 52.02 C-74.5 47.52 -72.96 46.4 -69.64 43.4 C-69.19 42.64 -68.75 41.89 -68.29 41.11 C-61.82 30.49 -49.79 18.66 -38.64 13.4 C-37.68 12.62 -37.68 12.62 -36.7 11.84 C-34.64 10.4 -34.64 10.4 -31.02 9.4 C-27.39 8.72 -27.39 8.72 -25.64 5.4 C-22.74 4.77 -22.74 4.77 -19.27 4.4 C-14.72 4.1 -14.72 4.1 -10.98 1.88 C-7.5 -0.33 -4 -0.03 0 0 Z " fill="#F3F5F7" transform="translate(324.640625,239.6015625)"/>
<path d="M0 0 C0.66 0.33 1.32 0.66 2 1 C-3.34 7.32 -9.06 13.18 -14.94 19 C-15.81 19.87 -16.69 20.74 -17.59 21.64 C-19.72 23.76 -21.86 25.88 -24 28 C-24.66 27.34 -25.32 26.68 -26 26 C-17.42 17.42 -8.84 8.84 0 0 Z " fill="#A2A2A2" transform="translate(232,203)"/>
<path d="M0 0 C3.88 1.55 6.03 4 8.75 7.12 C9.95 8.49 9.95 8.49 11.17 9.88 C12.08 10.93 12.08 10.93 13 12 C10 12 10 12 7.77 10.14 C6.98 9.33 6.19 8.52 5.38 7.69 C4.58 6.89 3.78 6.09 2.96 5.26 C1 3 1 3 0 0 Z " fill="#F35F7" transform="translate(223,1066)"/>
</svg>
